M48
INCH,LZ
;FILE_FORMAT=2:4
;TYPE=PLATED
;Layer: PTH_Through
;EasyEDA v6.5.22, 2023-03-28 13:18:53
;9d449dd0c0e0408fbd9c808f7c3628e3,f128b93731b54af8bf61243348d08170,10
;Gerber Generator version 0.2
;Holesize 1 = 0.0320 inch
T01C0.0320
;Holesize 2 = 0.0350 inch
T02C0.0350
;Holesize 3 = 0.0430 inch
T03C0.0430
;Holesize 4 = 0.0470 inch
T04C0.0470
;Holesize 5 = 0.0630 inch
T05C0.0630
;Holesize 6 = 0.0710 inch
T06C0.0710
%
G05
G90
T01
X024601Y032901G85X024601Y032665
X021199Y032901G85X021199Y032665
X021199Y031295G85X021199Y030980
X024601Y031295G85X024601Y030980
T02
X035000Y010500
X035000Y009500
X035000Y008500
X035000Y007500
X035000Y006500
X011000Y006500
X011000Y007500
X011000Y008500
X011000Y009500
X011000Y010500
T03
X013984Y026622
X013000Y026622
X012016Y026622
X013984Y019410
X013000Y019410
X012016Y019410
X013984Y012372
X013000Y012372
X012016Y012372
X013984Y000122
X013000Y000122
X012016Y000122
X033984Y026622
X033000Y026622
X032016Y026622
X033984Y019410
X033000Y019410
X032016Y019410
X033984Y012372
X033000Y012372
X032016Y012372
X033984Y000122
X033000Y000122
X032016Y000122
T04
X017400Y026300
X017400Y027300
X018400Y026300
X018400Y027300
X019400Y026300
X019400Y027300
X017020Y031686
X019580Y031686
X017020Y029914
X019580Y029914
T05
X015860Y-003188
X015860Y-001712
X029640Y-003188
T06
X014732Y029293G85X014732Y029451
X011268Y029299G85X011268Y029457
X014732Y022081G85X014732Y022238
X011268Y022087G85X011268Y022244
X014732Y015043G85X014732Y015201
X011268Y015049G85X011268Y015207
X014732Y002793G85X014732Y002951
X011268Y002799G85X011268Y002957
X034732Y029293G85X034732Y029451
X031268Y029299G85X031268Y029457
X034732Y022081G85X034732Y022238
X031268Y022087G85X031268Y022244
X034732Y015043G85X034732Y015201
X031268Y015049G85X031268Y015207
X034732Y002793G85X034732Y002951
X031268Y002799G85X031268Y002957
M30
