G04 Layer: TopSolderMaskLayer*
G04 EasyEDA v6.5.22, 2023-03-28 13:18:53*
G04 9d449dd0c0e0408fbd9c808f7c3628e3,f128b93731b54af8bf61243348d08170,10*
G04 Gerber Generator version 0.2*
G04 Scale: 100 percent, Rotated: No, Reflected: No *
G04 Dimensions in inches *
G04 leading zeros omitted , absolute positions ,3 integer and 6 decimal *
%FSLAX36Y36*%
%MOIN*%

%AMMACRO1*1,1,$1,$2,$3*1,1,$1,$4,$5*1,1,$1,0-$2,0-$3*1,1,$1,0-$4,0-$5*20,1,$1,$2,$3,$4,$5,0*20,1,$1,$4,$5,0-$2,0-$3,0*20,1,$1,0-$2,0-$3,0-$4,0-$5,0*20,1,$1,0-$4,0-$5,$2,$3,0*4,1,4,$2,$3,$4,$5,0-$2,0-$3,0-$4,0-$5,$2,$3,0*%
%AMMACRO2*4,1,38,-0.0275,-0.0266,-0.0287,-0.0264,-0.0299,-0.0258,-0.0307,-0.025,-0.0313,-0.0238,-0.0315,-0.0226,-0.0316,-0.0226,-0.0316,0.0226,-0.0315,0.0226,-0.0313,0.0238,-0.0307,0.025,-0.0299,0.0258,-0.0287,0.0264,-0.0275,0.0266,-0.0276,0.0266,0.0133,0.0266,0.0139,0.0265,0.0146,0.0264,0.0152,0.0261,0.0157,0.0258,0.0162,0.0254,0.0162,0.0254,0.0304,0.0105,0.0305,0.0105,0.0309,0.01,0.0312,0.0095,0.0316,0.0083,0.0316,0.0077,0.0315,0.0077,0.0315,-0.0226,0.0316,-0.0226,0.0314,-0.0238,0.0308,-0.025,0.03,-0.0258,0.0288,-0.0264,0.0276,-0.0266,0.0275,-0.0266,-0.0276,-0.0266,-0.0275,-0.0266,0*%
%ADD10MACRO1,0.008X-0.065X-0.035X-0.065X0.035*%
%ADD11O,0.027685X0.07886599999999999*%
%ADD12O,0.07886599999999999X0.027685*%
%ADD13MACRO1,0.008X-0.0197X0.0305X0.0197X0.0305*%
%ADD14MACRO1,0.008X-0.0305X-0.0197X-0.0305X0.0197*%
%ADD15MACRO1,0.008X-0.0354X0.0354X0.0354X0.0354*%
%ADD16C,0.0789*%
%ADD17MACRO1,0.008X0.0276X0.0256X0.0276X-0.0256*%
%ADD18C,0.1064*%
%ADD19MACRO1,0.008X-0.0276X0.0226X0.0276X0.0226*%
%ADD20MACRO2*%
%ADD21MACRO1,0.008X0.0197X-0.0305X-0.0197X-0.0305*%
%ADD22MACRO1,0.008X0.0059X-0.0256X-0.0059X-0.0256*%
%ADD23O,0.055244X0.07886599999999999*%
%ADD24O,0.055244X0.08674*%
%ADD25C,0.0700*%
%ADD26R,0.0700X0.0700*%
%ADD27MACRO1,0.008X0.031X0.031X0.031X-0.031*%
%ADD28O,0.106425X0.12611*%
%ADD29MACRO1,0.008X0.0305X0.0197X0.0305X-0.0197*%
%ADD30MACRO1,0.008X-0.0276X-0.0236X-0.0276X0.0236*%

%LPD*%
D10*
G01*
X2695000Y2884255D03*
G01*
X2695000Y3065744D03*
D11*
G01*
X2542479Y2134090D03*
G01*
X2510979Y2134090D03*
G01*
X2479489Y2134090D03*
G01*
X2447990Y2134090D03*
G01*
X2416499Y2134090D03*
G01*
X2385000Y2134090D03*
G01*
X2353500Y2134090D03*
G01*
X2322010Y2134090D03*
G01*
X2290510Y2134090D03*
G01*
X2259020Y2134090D03*
G01*
X2227520Y2134090D03*
D12*
G01*
X2140910Y2047480D03*
G01*
X2140910Y2015979D03*
G01*
X2140910Y1984490D03*
G01*
X2140910Y1952989D03*
G01*
X2140910Y1921500D03*
G01*
X2140910Y1890000D03*
G01*
X2140910Y1858499D03*
G01*
X2140910Y1827010D03*
G01*
X2140910Y1795509D03*
G01*
X2140910Y1764020D03*
G01*
X2140910Y1732519D03*
D11*
G01*
X2227520Y1645909D03*
G01*
X2259020Y1645909D03*
G01*
X2290510Y1645909D03*
G01*
X2322010Y1645909D03*
G01*
X2353500Y1645909D03*
G01*
X2385000Y1645909D03*
G01*
X2416499Y1645909D03*
G01*
X2447990Y1645909D03*
G01*
X2479489Y1645909D03*
G01*
X2510979Y1645909D03*
G01*
X2542479Y1645909D03*
D12*
G01*
X2629089Y1732519D03*
G01*
X2629089Y1764020D03*
G01*
X2629089Y1795509D03*
G01*
X2629089Y1827010D03*
G01*
X2629089Y1858499D03*
G01*
X2629089Y1890000D03*
G01*
X2629089Y1921500D03*
G01*
X2629089Y1952989D03*
G01*
X2629089Y1984490D03*
G01*
X2629089Y2015979D03*
G01*
X2629089Y2047480D03*
D13*
G01*
X2385630Y95000D03*
G01*
X2464369Y95000D03*
G01*
X2140630Y70000D03*
G01*
X2219369Y70000D03*
G01*
X2630630Y85000D03*
G01*
X2709369Y85000D03*
G01*
X1670630Y70000D03*
G01*
X1749369Y70000D03*
D14*
G01*
X2095000Y2819369D03*
G01*
X2095000Y2740630D03*
D15*
G01*
X1740000Y2630000D03*
D16*
G01*
X1740000Y2730000D03*
G01*
X1840000Y2630000D03*
G01*
X1840000Y2730000D03*
G01*
X1940000Y2630000D03*
G01*
X1940000Y2730000D03*
D17*
G01*
X2095000Y2626350D03*
G01*
X2095000Y2543650D03*
D18*
G01*
X1586019Y-318820D03*
G01*
X1586019Y-171179D03*
G01*
X2963980Y-318820D03*
D16*
G01*
X1702049Y3168580D03*
G01*
X1957950Y3168580D03*
G01*
X1702049Y2991419D03*
G01*
X1957950Y2991419D03*
D19*
G01*
X1813306Y1971503D03*
D20*
G01*
X1726673Y1908502D03*
D19*
G01*
X1726685Y1971503D03*
G01*
X1813306Y1908502D03*
D21*
G01*
X1870630Y2245000D03*
G01*
X1949369Y2245000D03*
D22*
G01*
X2421889Y3071720D03*
G01*
X2410079Y3071720D03*
G01*
X2390389Y3071720D03*
G01*
X2378579Y3071720D03*
G01*
X2358899Y3071682D03*
G01*
X2339209Y3071721D03*
G01*
X2319529Y3071720D03*
G01*
X2299839Y3071721D03*
G01*
X2280159Y3071720D03*
G01*
X2260469Y3071721D03*
G01*
X2240799Y3071682D03*
G01*
X2221099Y3071721D03*
G01*
X2201419Y3071719D03*
G01*
X2189599Y3071719D03*
G01*
X2169919Y3071721D03*
G01*
X2158109Y3071721D03*
D23*
G01*
X2460079Y3278310D03*
G01*
X2119920Y3278310D03*
D24*
G01*
X2119920Y3113739D03*
G01*
X2460079Y3113739D03*
D25*
G01*
X3500000Y1050000D03*
G01*
X3500000Y950000D03*
G01*
X3500000Y850000D03*
G01*
X3500000Y750000D03*
D26*
G01*
X3500000Y650000D03*
D25*
G01*
X1100000Y650000D03*
G01*
X1100000Y750000D03*
G01*
X1100000Y850000D03*
G01*
X1100000Y950000D03*
D27*
G01*
X1100000Y1050000D03*
D13*
G01*
X1895630Y75000D03*
G01*
X1974369Y75000D03*
D28*
G01*
X1473230Y2937199D03*
G01*
X1126779Y2937790D03*
D16*
G01*
X1398419Y2662199D03*
G01*
X1300010Y2662199D03*
G01*
X1201580Y2662199D03*
D28*
G01*
X1473230Y2215949D03*
G01*
X1126779Y2216540D03*
D16*
G01*
X1398419Y1940949D03*
G01*
X1300010Y1940949D03*
G01*
X1201580Y1940949D03*
D28*
G01*
X1473230Y1512199D03*
G01*
X1126779Y1512790D03*
D16*
G01*
X1398419Y1237199D03*
G01*
X1300010Y1237199D03*
G01*
X1201580Y1237199D03*
D28*
G01*
X1473230Y287199D03*
G01*
X1126779Y287789D03*
D16*
G01*
X1398419Y12199D03*
G01*
X1300010Y12199D03*
G01*
X1201580Y12199D03*
D28*
G01*
X3473230Y2937199D03*
G01*
X3126779Y2937790D03*
D16*
G01*
X3398429Y2662199D03*
G01*
X3300010Y2662199D03*
G01*
X3201580Y2662199D03*
D28*
G01*
X3473230Y2215949D03*
G01*
X3126779Y2216540D03*
D16*
G01*
X3398429Y1940949D03*
G01*
X3300010Y1940949D03*
G01*
X3201580Y1940949D03*
D28*
G01*
X3473230Y1512199D03*
G01*
X3126779Y1512790D03*
D16*
G01*
X3398429Y1237199D03*
G01*
X3300010Y1237199D03*
G01*
X3201580Y1237199D03*
D28*
G01*
X3473230Y287199D03*
G01*
X3126779Y287789D03*
D16*
G01*
X3398429Y12199D03*
G01*
X3300010Y12199D03*
G01*
X3201580Y12199D03*
D29*
G01*
X2325000Y2580630D03*
G01*
X2325000Y2659369D03*
G01*
X2425000Y2580630D03*
G01*
X2425000Y2659369D03*
D14*
G01*
X1705000Y1580630D03*
G01*
X1705000Y1659369D03*
G01*
X1840000Y1585630D03*
G01*
X1840000Y1664369D03*
D30*
G01*
X2920000Y1577004D03*
G01*
X2920000Y1702995D03*
M02*
