G04 Layer: TopPasteMaskLayer*
G04 EasyEDA v6.5.22, 2023-03-28 13:18:53*
G04 9d449dd0c0e0408fbd9c808f7c3628e3,f128b93731b54af8bf61243348d08170,10*
G04 Gerber Generator version 0.2*
G04 Scale: 100 percent, Rotated: No, Reflected: No *
G04 Dimensions in inches *
G04 leading zeros omitted , absolute positions ,3 integer and 6 decimal *
%FSLAX36Y36*%
%MOIN*%

%AMMACRO1*4,1,5,-0.0276,0.0226,0.0133,0.0226,0.0276,0.0077,0.0276,-0.0226,-0.0276,-0.0226,-0.0276,0.0226,0*%
%ADD10R,0.1299X0.0701*%
%ADD11O,0.019684999999999998X0.070866*%
%ADD12O,0.070866X0.019684999999999998*%
%ADD13R,0.0394X0.0610*%
%ADD14R,0.0610X0.0394*%
%ADD15R,0.0551X0.0512*%
%ADD16R,0.0551X0.0453*%
%ADD17MACRO1*%
%ADD18R,0.0118X0.0512*%
%ADD19R,0.0551X0.0472*%

%LPD*%
D10*
G01*
X2695000Y2884259D03*
G01*
X2695000Y3065740D03*
D11*
G01*
X2542479Y2134090D03*
G01*
X2510979Y2134090D03*
G01*
X2479489Y2134090D03*
G01*
X2447990Y2134090D03*
G01*
X2416499Y2134090D03*
G01*
X2385000Y2134090D03*
G01*
X2353500Y2134090D03*
G01*
X2322010Y2134090D03*
G01*
X2290510Y2134090D03*
G01*
X2259020Y2134090D03*
G01*
X2227520Y2134090D03*
D12*
G01*
X2140910Y2047480D03*
G01*
X2140910Y2015979D03*
G01*
X2140910Y1984490D03*
G01*
X2140910Y1952989D03*
G01*
X2140910Y1921500D03*
G01*
X2140910Y1890000D03*
G01*
X2140910Y1858499D03*
G01*
X2140910Y1827010D03*
G01*
X2140910Y1795509D03*
G01*
X2140910Y1764020D03*
G01*
X2140910Y1732519D03*
D11*
G01*
X2227520Y1645909D03*
G01*
X2259020Y1645909D03*
G01*
X2290510Y1645909D03*
G01*
X2322010Y1645909D03*
G01*
X2353500Y1645909D03*
G01*
X2385000Y1645909D03*
G01*
X2416499Y1645909D03*
G01*
X2447990Y1645909D03*
G01*
X2479489Y1645909D03*
G01*
X2510979Y1645909D03*
G01*
X2542479Y1645909D03*
D12*
G01*
X2629089Y1732519D03*
G01*
X2629089Y1764020D03*
G01*
X2629089Y1795509D03*
G01*
X2629089Y1827010D03*
G01*
X2629089Y1858499D03*
G01*
X2629089Y1890000D03*
G01*
X2629089Y1921500D03*
G01*
X2629089Y1952989D03*
G01*
X2629089Y1984490D03*
G01*
X2629089Y2015979D03*
G01*
X2629089Y2047480D03*
D13*
G01*
X2385630Y95000D03*
G01*
X2464369Y95000D03*
G01*
X2140630Y70000D03*
G01*
X2219369Y70000D03*
G01*
X2630630Y85000D03*
G01*
X2709369Y85000D03*
G01*
X1670630Y70000D03*
G01*
X1749369Y70000D03*
D14*
G01*
X2095000Y2819369D03*
G01*
X2095000Y2740630D03*
D15*
G01*
X2095000Y2626350D03*
G01*
X2095000Y2543649D03*
D16*
G01*
X1813310Y1971500D03*
D17*
G01*
X1726687Y1908504D03*
D16*
G01*
X1726689Y1971500D03*
G01*
X1813310Y1908499D03*
D13*
G01*
X1870630Y2245000D03*
G01*
X1949369Y2245000D03*
D18*
G01*
X2421890Y3071720D03*
G01*
X2410079Y3071720D03*
G01*
X2390389Y3071720D03*
G01*
X2378580Y3071720D03*
G01*
X2358900Y3071680D03*
G01*
X2339210Y3071720D03*
G01*
X2319530Y3071720D03*
G01*
X2299840Y3071720D03*
G01*
X2280159Y3071720D03*
G01*
X2260469Y3071720D03*
G01*
X2240799Y3071680D03*
G01*
X2221099Y3071720D03*
G01*
X2201419Y3071720D03*
G01*
X2189600Y3071720D03*
G01*
X2169920Y3071720D03*
G01*
X2158109Y3071720D03*
D13*
G01*
X1895630Y75000D03*
G01*
X1974369Y75000D03*
D14*
G01*
X2325000Y2580630D03*
G01*
X2325000Y2659369D03*
G01*
X2425000Y2580630D03*
G01*
X2425000Y2659369D03*
G01*
X1705000Y1580630D03*
G01*
X1705000Y1659369D03*
G01*
X1840000Y1585630D03*
G01*
X1840000Y1664369D03*
D19*
G01*
X2920000Y1576999D03*
G01*
X2920000Y1703000D03*
M02*
