G04 Layer: TopLayer*
G04 EasyEDA v6.5.22, 2023-03-28 13:18:53*
G04 9d449dd0c0e0408fbd9c808f7c3628e3,f128b93731b54af8bf61243348d08170,10*
G04 Gerber Generator version 0.2*
G04 Scale: 100 percent, Rotated: No, Reflected: No *
G04 Dimensions in inches *
G04 leading zeros omitted , absolute positions ,3 integer and 6 decimal *
%FSLAX36Y36*%
%MOIN*%

%AMMACRO1*4,1,5,-0.0276,0.0226,0.0133,0.0226,0.0276,0.0077,0.0276,-0.0226,-0.0276,-0.0226,-0.0276,0.0226,0*%
%ADD10C,0.0100*%
%ADD11R,0.1299X0.0701*%
%ADD12O,0.019684999999999998X0.070866*%
%ADD13O,0.070866X0.019684999999999998*%
%ADD14R,0.0394X0.0610*%
%ADD15R,0.0610X0.0394*%
%ADD16R,0.0551X0.0512*%
%ADD17R,0.0551X0.0453*%
%ADD18MACRO1*%
%ADD19R,0.0118X0.0512*%
%ADD20R,0.0551X0.0472*%
%ADD21R,0.0709X0.0709*%
%ADD22C,0.0709*%
%ADD23C,0.0984*%
%ADD24O,0.047244X0.070866*%
%ADD25O,0.047244X0.07873999999999999*%
%ADD26C,0.0620*%
%ADD27R,0.0620X0.0620*%
%ADD28O,0.098425X0.11810999999999999*%
%ADD29C,0.0240*%
%ADD30C,0.0197*%

%LPD*%
D10*
X3201580Y1237199D02*
G01*
X2920000Y1518780D01*
X2920000Y1576999D01*
X2629099Y1732500D02*
G01*
X2784600Y1576999D01*
X2920000Y1576999D01*
X2629089Y1764020D02*
G01*
X2858980Y1764020D01*
X2920000Y1703000D01*
X1201599Y1237199D02*
G01*
X1201599Y1940900D01*
X2695000Y3065700D02*
G01*
X2618999Y3065700D01*
X2362500Y3124499D02*
G01*
X2378599Y3108400D01*
X2201400Y3108400D02*
G01*
X2217500Y3124499D01*
X2362500Y3124499D01*
X2618999Y3065700D02*
G01*
X2515500Y3169200D01*
X2398000Y3169200D01*
X2362500Y3133800D01*
X2362500Y3124499D01*
X2378599Y3090100D02*
G01*
X2390399Y3078200D01*
X2390399Y3071700D01*
X2378599Y3090100D02*
G01*
X2378599Y3108400D01*
X2378599Y3071700D02*
G01*
X2378599Y3090100D01*
X2201400Y3071700D02*
G01*
X2201400Y3108400D01*
X2189600Y3071700D02*
G01*
X2201400Y3071700D01*
X2629099Y1764000D02*
G01*
X2599499Y1764000D01*
X2545799Y1817699D01*
X2545799Y1964299D01*
X2597500Y2015999D01*
X2629099Y2015999D01*
X2158100Y3035000D02*
G01*
X2216099Y2976999D01*
X2216099Y2431100D01*
X2416499Y2230700D01*
X2416499Y2134099D01*
X2052600Y3035000D02*
G01*
X2158100Y3035000D01*
X2219399Y116599D02*
G01*
X2239399Y136599D01*
X2464399Y136599D01*
X2219399Y107600D02*
G01*
X2219399Y116599D01*
X2219399Y116599D02*
G01*
X1974399Y116599D01*
X1974399Y75000D02*
G01*
X1974399Y116599D01*
X2421899Y3071700D02*
G01*
X2421899Y3035000D01*
X2421899Y3035000D02*
G01*
X2444499Y3012399D01*
X2444499Y2737500D01*
X2421899Y3071700D02*
G01*
X2410100Y3071700D01*
X1398400Y12199D02*
G01*
X1398400Y1237199D01*
X1586000Y-318800D02*
G01*
X1398400Y-131199D01*
X1398400Y12199D01*
X1840000Y1585599D02*
G01*
X2167200Y1585599D01*
X2227500Y1645900D01*
X1746599Y1580599D02*
G01*
X1751599Y1585599D01*
X1840000Y1585599D01*
X2227500Y1645900D02*
G01*
X2227500Y1890700D01*
X2165299Y1953000D01*
X2140900Y1953000D01*
X2219399Y70000D02*
G01*
X2219399Y107600D01*
X2464399Y95000D02*
G01*
X2464399Y136599D01*
X1974399Y34899D02*
G01*
X1967899Y28400D01*
X1749399Y28400D01*
X1974399Y75000D02*
G01*
X1974399Y34899D01*
X2095000Y2561999D02*
G01*
X2095000Y2543600D01*
X2095000Y2561999D02*
G01*
X2095000Y2580300D01*
X1996400Y2730000D02*
G01*
X2052600Y2786199D01*
X2052600Y3035000D01*
X2095000Y2580300D02*
G01*
X2067500Y2580300D01*
X1996400Y2651399D01*
X1996400Y2730000D01*
X1996400Y2730000D02*
G01*
X1940000Y2730000D01*
X1586000Y-318800D02*
G01*
X1749399Y-155500D01*
X1749399Y28400D01*
X1958000Y3168600D02*
G01*
X2052600Y3073899D01*
X2052600Y3035000D01*
X1398400Y1940900D02*
G01*
X1398400Y2662199D01*
X1398400Y1940900D02*
G01*
X1663400Y1940900D01*
X1813299Y1908499D02*
G01*
X1774700Y1908499D01*
X1774700Y1908499D02*
G01*
X1774700Y1923499D01*
X1726700Y1971500D01*
X2158100Y3071700D02*
G01*
X2158100Y3035000D01*
X2158100Y3071700D02*
G01*
X2169899Y3071700D01*
X1749399Y70000D02*
G01*
X1749399Y28400D01*
X1663400Y1940900D02*
G01*
X1663400Y1946900D01*
X1688000Y1971500D01*
X1663400Y1580599D02*
G01*
X1663400Y1940900D01*
X1398400Y1237199D02*
G01*
X1398400Y1315599D01*
X1663400Y1580599D01*
X3398400Y2662199D02*
G01*
X3398400Y1940900D01*
X3398400Y1940900D02*
G01*
X3398400Y1237199D01*
X3398400Y1237199D02*
G01*
X3500000Y1135599D01*
X3500000Y1050000D01*
X3398400Y12199D02*
G01*
X3398400Y948400D01*
X3500000Y1050000D01*
X1726700Y1971500D02*
G01*
X1688000Y1971500D01*
X1705000Y1580599D02*
G01*
X1663400Y1580599D01*
X1725799Y1580599D02*
G01*
X1705000Y1580599D01*
X1725799Y1580599D02*
G01*
X1746599Y1580599D01*
X1895600Y75000D02*
G01*
X1895600Y116599D01*
X2385000Y2134099D02*
G01*
X2385000Y2080199D01*
X1895600Y116599D02*
G01*
X1965699Y186599D01*
X1965699Y1212600D01*
X2290500Y2134099D02*
G01*
X2290500Y2109200D01*
X2262100Y2080799D01*
X2220500Y2080799D01*
X1840000Y2461300D01*
X1840000Y2630000D01*
X1840000Y2730000D02*
G01*
X1840000Y2701500D01*
X1890000Y2651500D01*
X1890000Y2532500D01*
X2258999Y2163499D01*
X2258999Y2134099D01*
X2198699Y2168899D02*
G01*
X2227500Y2140000D01*
X2227500Y2134099D01*
X1949399Y2245000D02*
G01*
X1949399Y2286599D01*
X1893400Y2776500D02*
G01*
X1893400Y2676599D01*
X1940000Y2630000D01*
X1958000Y2991399D02*
G01*
X1893400Y2926900D01*
X1893400Y2776500D01*
X1949399Y2286599D02*
G01*
X1790000Y2445999D01*
X1790000Y2750700D01*
X1815900Y2776500D01*
X1893400Y2776500D01*
X2140900Y2015999D02*
G01*
X2114300Y2015999D01*
X1949399Y2180900D01*
X1949399Y2245000D01*
X1813299Y1971500D02*
G01*
X1851999Y1971500D01*
X1881599Y1921500D02*
G01*
X1881599Y1664400D01*
X1851999Y1971500D02*
G01*
X1851999Y1951100D01*
X1881599Y1921500D01*
X1881599Y1921500D02*
G01*
X2140900Y1921500D01*
X1840000Y1664400D02*
G01*
X1881599Y1664400D01*
X1746599Y1659400D02*
G01*
X1772399Y1633600D01*
X2098500Y1633600D01*
X2191700Y1726799D01*
X2191700Y1865999D01*
X2167700Y1890000D01*
X2140900Y1890000D01*
X1729399Y1910000D02*
G01*
X1746599Y1892800D01*
X1746599Y1659400D01*
X1705000Y1659400D02*
G01*
X1746599Y1659400D01*
X2290500Y1645900D02*
G01*
X2290500Y1670399D01*
X2365000Y1744800D01*
X2554600Y1744800D01*
X2595600Y1703899D01*
X2602799Y1703899D01*
X2321999Y1645900D02*
G01*
X2321999Y1675700D01*
X2375000Y1728699D01*
X2523500Y1728699D01*
X2563500Y1688800D01*
X2585200Y1688800D01*
X2613000Y1660999D01*
X2613000Y528400D01*
X3177899Y-36500D01*
X3251300Y-36500D01*
X3300000Y12199D01*
X1586000Y-171199D02*
G01*
X1586000Y865599D01*
X1956099Y1235700D01*
X1966999Y1235700D01*
X2353500Y1622199D01*
X2353500Y1645900D01*
X2385000Y984400D02*
G01*
X2385000Y1645900D01*
X2390900Y1705599D02*
G01*
X2416499Y1680000D01*
X2416499Y1645900D01*
X2479499Y1645900D02*
G01*
X2479499Y850000D01*
X2511000Y1645900D02*
G01*
X2509099Y1644099D01*
X2509099Y800000D01*
X3300000Y1940900D02*
G01*
X3154600Y1795500D01*
X2629099Y1795500D01*
X3300000Y2662199D02*
G01*
X3249099Y2713099D01*
X3181099Y2713099D01*
X2716300Y2248299D01*
X2716300Y1865799D01*
X2677399Y1826999D01*
X2629099Y1826999D01*
X2575500Y1820599D02*
G01*
X2575500Y1833299D01*
X2600799Y1858499D01*
X2629099Y1858499D01*
X2629099Y1890000D02*
G01*
X2585100Y1890000D01*
X2574799Y1879699D01*
X2574399Y1921500D02*
G01*
X2629099Y1921500D01*
X2629099Y1953000D02*
G01*
X2574399Y1953000D01*
X2709399Y126599D02*
G01*
X2575600Y260399D01*
X2575600Y1664699D01*
X2709399Y85000D02*
G01*
X2709399Y126599D01*
X2693199Y1875399D02*
G01*
X2693199Y1946799D01*
X2655500Y1984499D01*
X2629099Y1984499D01*
X2095000Y2626300D02*
G01*
X2095000Y2663000D01*
X2095000Y2740599D02*
G01*
X2136599Y2740599D01*
X2095000Y2663000D02*
G01*
X2136599Y2704600D01*
X2136599Y2740599D01*
X2319499Y3071700D02*
G01*
X2319499Y3035000D01*
X2319499Y3035000D02*
G01*
X2280200Y3035000D01*
X2280200Y3071700D02*
G01*
X2280200Y3035000D01*
X2260500Y3071700D02*
G01*
X2260500Y3108400D01*
X2299799Y3071700D02*
G01*
X2299799Y3108400D01*
X2299799Y3108400D02*
G01*
X2260500Y3108400D01*
X2119899Y3113699D02*
G01*
X2119899Y3278299D01*
X3198800Y1240000D02*
G01*
X3201599Y1237199D01*
X3201599Y1990500D02*
G01*
X3321499Y1990500D01*
X3349200Y1962800D01*
X3349200Y1390399D01*
X3198800Y1240000D01*
X3201599Y2662199D02*
G01*
X3201599Y1990500D01*
X3201599Y1990500D02*
G01*
X3201599Y1940900D01*
X1201599Y12199D02*
G01*
X1201599Y648400D01*
X1100000Y750000D01*
X1100000Y750000D02*
G01*
X1201599Y851599D01*
X1201599Y1237199D01*
X1201599Y1237199D02*
G01*
X1201599Y1940900D01*
X2963999Y-318800D02*
G01*
X2757899Y-318800D01*
X2385600Y53400D01*
X2385600Y95000D02*
G01*
X2385600Y53400D01*
X1870600Y2245000D02*
G01*
X1870600Y2203400D01*
X2136599Y2819400D02*
G01*
X2152700Y2803200D01*
X2152700Y2431900D01*
X2353500Y2231199D01*
X2353500Y2134099D01*
X2095000Y2819400D02*
G01*
X2136599Y2819400D01*
X2140600Y28400D02*
G01*
X2360600Y28400D01*
X2385600Y53400D01*
X1870600Y2203400D02*
G01*
X2089600Y1984499D01*
X2140900Y1984499D01*
X2618999Y2884200D02*
G01*
X2618999Y2057600D01*
X2629099Y2047500D01*
X2695000Y2884200D02*
G01*
X2618999Y2884200D01*
X2629099Y2047500D02*
G01*
X2527500Y2047500D01*
X2140600Y70000D02*
G01*
X2140600Y28400D01*
X1670600Y70000D02*
G01*
X1670600Y28400D01*
X1670600Y28400D02*
G01*
X1634499Y28400D01*
X2511000Y2134099D02*
G01*
X2511000Y2064000D01*
X2527500Y2047500D01*
X2353500Y2134099D02*
G01*
X2353500Y1956799D01*
X2353500Y1956799D02*
G01*
X2300100Y1903400D01*
X2258999Y1903400D01*
X2258999Y1645900D02*
G01*
X2258999Y1903400D01*
X2258999Y1903400D02*
G01*
X2177899Y1984499D01*
X2140900Y1984499D01*
X3201599Y12199D02*
G01*
X3201599Y1237199D01*
X2353500Y1956799D02*
G01*
X2527500Y1956799D01*
X2527500Y2047500D02*
G01*
X2527500Y1956799D01*
X2527500Y1956799D02*
G01*
X2527500Y1809299D01*
X2604200Y1732500D01*
X2629099Y1732500D01*
X1740000Y2730000D02*
G01*
X1692799Y2682800D01*
X1692799Y2464499D01*
X1870600Y2286599D01*
X1870600Y2245000D02*
G01*
X1870600Y2286599D01*
X1201599Y2662199D02*
G01*
X1201599Y1940900D01*
X2260469Y3071720D02*
G01*
X2260469Y2723899D01*
X2325000Y2659369D01*
X2319499Y3035000D02*
G01*
X2319499Y2764870D01*
X2425000Y2659369D01*
X2325000Y2580630D02*
G01*
X2447990Y2457640D01*
X2447990Y2134090D01*
X2425000Y2580630D02*
G01*
X2479489Y2526140D01*
X2479489Y2134090D01*
X2630600Y126599D02*
G01*
X2620600Y136599D01*
X2464399Y136599D01*
X2630600Y85000D02*
G01*
X2630600Y126599D01*
D11*
G01*
X2695000Y2884259D03*
G01*
X2695000Y3065740D03*
D12*
G01*
X2542479Y2134090D03*
G01*
X2510979Y2134090D03*
G01*
X2479489Y2134090D03*
G01*
X2447990Y2134090D03*
G01*
X2416499Y2134090D03*
G01*
X2385000Y2134090D03*
G01*
X2353500Y2134090D03*
G01*
X2322010Y2134090D03*
G01*
X2290510Y2134090D03*
G01*
X2259020Y2134090D03*
G01*
X2227520Y2134090D03*
D13*
G01*
X2140910Y2047480D03*
G01*
X2140910Y2015979D03*
G01*
X2140910Y1984490D03*
G01*
X2140910Y1952989D03*
G01*
X2140910Y1921500D03*
G01*
X2140910Y1890000D03*
G01*
X2140910Y1858499D03*
G01*
X2140910Y1827010D03*
G01*
X2140910Y1795509D03*
G01*
X2140910Y1764020D03*
G01*
X2140910Y1732519D03*
D12*
G01*
X2227520Y1645909D03*
G01*
X2259020Y1645909D03*
G01*
X2290510Y1645909D03*
G01*
X2322010Y1645909D03*
G01*
X2353500Y1645909D03*
G01*
X2385000Y1645909D03*
G01*
X2416499Y1645909D03*
G01*
X2447990Y1645909D03*
G01*
X2479489Y1645909D03*
G01*
X2510979Y1645909D03*
G01*
X2542479Y1645909D03*
D13*
G01*
X2629089Y1732519D03*
G01*
X2629089Y1764020D03*
G01*
X2629089Y1795509D03*
G01*
X2629089Y1827010D03*
G01*
X2629089Y1858499D03*
G01*
X2629089Y1890000D03*
G01*
X2629089Y1921500D03*
G01*
X2629089Y1952989D03*
G01*
X2629089Y1984490D03*
G01*
X2629089Y2015979D03*
G01*
X2629089Y2047480D03*
D14*
G01*
X2385630Y95000D03*
G01*
X2464369Y95000D03*
G01*
X2140630Y70000D03*
G01*
X2219369Y70000D03*
G01*
X2630630Y85000D03*
G01*
X2709369Y85000D03*
G01*
X1670630Y70000D03*
G01*
X1749369Y70000D03*
D15*
G01*
X2095000Y2819369D03*
G01*
X2095000Y2740630D03*
D16*
G01*
X2095000Y2626350D03*
G01*
X2095000Y2543649D03*
D17*
G01*
X1813310Y1971500D03*
D18*
G01*
X1726687Y1908505D03*
D17*
G01*
X1726689Y1971500D03*
G01*
X1813310Y1908499D03*
D14*
G01*
X1870630Y2245000D03*
G01*
X1949369Y2245000D03*
D19*
G01*
X2421890Y3071720D03*
G01*
X2410079Y3071720D03*
G01*
X2390389Y3071720D03*
G01*
X2378580Y3071720D03*
G01*
X2358900Y3071680D03*
G01*
X2339210Y3071720D03*
G01*
X2319530Y3071720D03*
G01*
X2299840Y3071720D03*
G01*
X2280159Y3071720D03*
G01*
X2260469Y3071720D03*
G01*
X2240799Y3071680D03*
G01*
X2221099Y3071720D03*
G01*
X2201419Y3071720D03*
G01*
X2189600Y3071720D03*
G01*
X2169920Y3071720D03*
G01*
X2158109Y3071720D03*
D14*
G01*
X1895630Y75000D03*
G01*
X1974369Y75000D03*
D15*
G01*
X2325000Y2580630D03*
G01*
X2325000Y2659369D03*
G01*
X2425000Y2580630D03*
G01*
X2425000Y2659369D03*
G01*
X1705000Y1580630D03*
G01*
X1705000Y1659369D03*
G01*
X1840000Y1585630D03*
G01*
X1840000Y1664369D03*
D20*
G01*
X2920000Y1576999D03*
G01*
X2920000Y1703000D03*
D21*
G01*
X1740000Y2630000D03*
D22*
G01*
X1740000Y2730000D03*
G01*
X1840000Y2630000D03*
G01*
X1840000Y2730000D03*
G01*
X1940000Y2630000D03*
G01*
X1940000Y2730000D03*
D23*
G01*
X1586019Y-318820D03*
G01*
X1586019Y-171179D03*
G01*
X2963980Y-318820D03*
D22*
G01*
X1702049Y3168580D03*
G01*
X1957950Y3168580D03*
G01*
X1702049Y2991419D03*
G01*
X1957950Y2991419D03*
D24*
G01*
X2460079Y3278310D03*
G01*
X2119920Y3278310D03*
D25*
G01*
X2119920Y3113739D03*
G01*
X2460079Y3113739D03*
D26*
G01*
X3500000Y1050000D03*
G01*
X3500000Y950000D03*
G01*
X3500000Y850000D03*
G01*
X3500000Y750000D03*
D27*
G01*
X3500000Y650000D03*
D26*
G01*
X1100000Y650000D03*
G01*
X1100000Y750000D03*
G01*
X1100000Y850000D03*
G01*
X1100000Y950000D03*
D27*
G01*
X1100000Y1050000D03*
D28*
G01*
X1473230Y2937199D03*
G01*
X1126779Y2937790D03*
D22*
G01*
X1398419Y2662199D03*
G01*
X1300010Y2662199D03*
G01*
X1201580Y2662199D03*
D28*
G01*
X1473230Y2215949D03*
G01*
X1126779Y2216540D03*
D22*
G01*
X1398419Y1940949D03*
G01*
X1300010Y1940949D03*
G01*
X1201580Y1940949D03*
D28*
G01*
X1473230Y1512199D03*
G01*
X1126779Y1512790D03*
D22*
G01*
X1398419Y1237199D03*
G01*
X1300010Y1237199D03*
G01*
X1201580Y1237199D03*
D28*
G01*
X1473230Y287199D03*
G01*
X1126779Y287789D03*
D22*
G01*
X1398419Y12199D03*
G01*
X1300010Y12199D03*
G01*
X1201580Y12199D03*
D28*
G01*
X3473230Y2937199D03*
G01*
X3126779Y2937790D03*
D22*
G01*
X3398429Y2662199D03*
G01*
X3300010Y2662199D03*
G01*
X3201580Y2662199D03*
D28*
G01*
X3473230Y2215949D03*
G01*
X3126779Y2216540D03*
D22*
G01*
X3398429Y1940949D03*
G01*
X3300010Y1940949D03*
G01*
X3201580Y1940949D03*
D28*
G01*
X3473230Y1512199D03*
G01*
X3126779Y1512790D03*
D22*
G01*
X3398429Y1237199D03*
G01*
X3300010Y1237199D03*
G01*
X3201580Y1237199D03*
D28*
G01*
X3473230Y287199D03*
G01*
X3126779Y287789D03*
D22*
G01*
X3398429Y12199D03*
G01*
X3300010Y12199D03*
G01*
X3201580Y12199D03*
D29*
G01*
X2575600Y1664699D03*
G01*
X2693199Y1875399D03*
G01*
X2574399Y1953000D03*
G01*
X2574399Y1921500D03*
G01*
X2574799Y1879699D03*
G01*
X2575500Y1820599D03*
G01*
X2509099Y800000D03*
G01*
X2479499Y850000D03*
G01*
X2390900Y1705599D03*
G01*
X2385000Y984400D03*
G01*
X2602799Y1703899D03*
G01*
X2198699Y2168899D03*
G01*
X1965699Y1212600D03*
G01*
X2385000Y2080199D03*
G01*
X2444499Y2737500D03*
G01*
X1634499Y28400D03*
M02*
