G04 Layer: BottomSolderMaskLayer*
G04 EasyEDA v6.5.22, 2023-03-28 13:18:53*
G04 9d449dd0c0e0408fbd9c808f7c3628e3,f128b93731b54af8bf61243348d08170,10*
G04 Gerber Generator version 0.2*
G04 Scale: 100 percent, Rotated: No, Reflected: No *
G04 Dimensions in inches *
G04 leading zeros omitted , absolute positions ,3 integer and 6 decimal *
%FSLAX36Y36*%
%MOIN*%

%AMMACRO1*1,1,$1,$2,$3*1,1,$1,$4,$5*1,1,$1,0-$2,0-$3*1,1,$1,0-$4,0-$5*20,1,$1,$2,$3,$4,$5,0*20,1,$1,$4,$5,0-$2,0-$3,0*20,1,$1,0-$2,0-$3,0-$4,0-$5,0*20,1,$1,0-$4,0-$5,$2,$3,0*4,1,4,$2,$3,$4,$5,0-$2,0-$3,0-$4,0-$5,$2,$3,0*%
%ADD10MACRO1,0.008X-0.0354X0.0354X0.0354X0.0354*%
%ADD11C,0.0789*%
%ADD12C,0.1064*%
%ADD13O,0.055244X0.07886599999999999*%
%ADD14O,0.055244X0.08674*%
%ADD15C,0.0700*%
%ADD16R,0.0700X0.0700*%
%ADD17MACRO1,0.008X0.031X0.031X0.031X-0.031*%
%ADD18O,0.106425X0.12611*%

%LPD*%
D10*
G01*
X1740000Y2630000D03*
D11*
G01*
X1740000Y2730000D03*
G01*
X1840000Y2630000D03*
G01*
X1840000Y2730000D03*
G01*
X1940000Y2630000D03*
G01*
X1940000Y2730000D03*
D12*
G01*
X1586019Y-318820D03*
G01*
X1586019Y-171179D03*
G01*
X2963980Y-318820D03*
D11*
G01*
X1702049Y3168580D03*
G01*
X1957950Y3168580D03*
G01*
X1702049Y2991419D03*
G01*
X1957950Y2991419D03*
D13*
G01*
X2460079Y3278310D03*
G01*
X2119920Y3278310D03*
D14*
G01*
X2119920Y3113739D03*
G01*
X2460079Y3113739D03*
D15*
G01*
X3500000Y1050000D03*
G01*
X3500000Y950000D03*
G01*
X3500000Y850000D03*
G01*
X3500000Y750000D03*
D16*
G01*
X3500000Y650000D03*
D15*
G01*
X1100000Y650000D03*
G01*
X1100000Y750000D03*
G01*
X1100000Y850000D03*
G01*
X1100000Y950000D03*
D17*
G01*
X1100000Y1050000D03*
D18*
G01*
X1473230Y2937199D03*
G01*
X1126779Y2937790D03*
D11*
G01*
X1398419Y2662199D03*
G01*
X1300010Y2662199D03*
G01*
X1201580Y2662199D03*
D18*
G01*
X1473230Y2215949D03*
G01*
X1126779Y2216540D03*
D11*
G01*
X1398419Y1940949D03*
G01*
X1300010Y1940949D03*
G01*
X1201580Y1940949D03*
D18*
G01*
X1473230Y1512199D03*
G01*
X1126779Y1512790D03*
D11*
G01*
X1398419Y1237199D03*
G01*
X1300010Y1237199D03*
G01*
X1201580Y1237199D03*
D18*
G01*
X1473230Y287199D03*
G01*
X1126779Y287789D03*
D11*
G01*
X1398419Y12199D03*
G01*
X1300010Y12199D03*
G01*
X1201580Y12199D03*
D18*
G01*
X3473230Y2937199D03*
G01*
X3126779Y2937790D03*
D11*
G01*
X3398429Y2662199D03*
G01*
X3300010Y2662199D03*
G01*
X3201580Y2662199D03*
D18*
G01*
X3473230Y2215949D03*
G01*
X3126779Y2216540D03*
D11*
G01*
X3398429Y1940949D03*
G01*
X3300010Y1940949D03*
G01*
X3201580Y1940949D03*
D18*
G01*
X3473230Y1512199D03*
G01*
X3126779Y1512790D03*
D11*
G01*
X3398429Y1237199D03*
G01*
X3300010Y1237199D03*
G01*
X3201580Y1237199D03*
D18*
G01*
X3473230Y287199D03*
G01*
X3126779Y287789D03*
D11*
G01*
X3398429Y12199D03*
G01*
X3300010Y12199D03*
G01*
X3201580Y12199D03*
M02*
